<mxfile host="app.diagrams.net" modified="2022-04-18T10:22:08.283Z" agent="5.0 (Windows NT 10.0; Win64; x64) AppleWebKit/537.36 (KHTML, like Gecko) Chrome/100.0.4896.88 Safari/537.36" etag="h268sGDjfRSpolkLWTfl" version="17.4.0" type="github">
  <diagram id="LiXWn4SLnO2pyprJ95lD" name="Page-1">
    <mxGraphModel dx="2272" dy="786" grid="1" gridSize="10" guides="1" tooltips="1" connect="1" arrows="1" fold="1" page="1" pageScale="1" pageWidth="850" pageHeight="1100" math="0" shadow="0">
      <root>
        <mxCell id="0" />
        <mxCell id="1" parent="0" />
        <mxCell id="paTC-IRf0mrHUXig7ckt-1" value="Basics / Foundation part&lt;br&gt;&lt;br&gt;how to use CDN ?&lt;br&gt;basics of Vue.js&lt;br&gt;first app (using CDN spec)&lt;br&gt;directives&lt;br&gt;looper&lt;br&gt;events&lt;br&gt;modeling&lt;br&gt;how to deal with multiple instances?&lt;br&gt;(js fundamentals)&lt;br&gt;" style="rounded=1;whiteSpace=wrap;html=1;fontSize=18;" vertex="1" parent="1">
          <mxGeometry x="100" y="30" width="320" height="420" as="geometry" />
        </mxCell>
        <mxCell id="paTC-IRf0mrHUXig7ckt-2" value="CDN :&amp;nbsp; Content Delivery Network&lt;br&gt;&lt;br&gt;" style="rounded=1;whiteSpace=wrap;html=1;fontSize=18;" vertex="1" parent="1">
          <mxGeometry x="540" y="110" width="200" height="280" as="geometry" />
        </mxCell>
        <mxCell id="paTC-IRf0mrHUXig7ckt-3" value="1. Angular : framework&amp;nbsp;&lt;br&gt;2. React : library&lt;br&gt;3.&lt;b&gt; Vue : framework&lt;br&gt;&lt;/b&gt;&lt;br&gt;&lt;u&gt;&lt;i&gt;&lt;b&gt;library Vs Framework&amp;nbsp;&lt;/b&gt;&lt;/i&gt;&lt;/u&gt;" style="rounded=1;whiteSpace=wrap;html=1;fontSize=18;" vertex="1" parent="1">
          <mxGeometry x="130" y="540" width="270" height="160" as="geometry" />
        </mxCell>
        <mxCell id="paTC-IRf0mrHUXig7ckt-7" value="" style="edgeStyle=orthogonalEdgeStyle;rounded=0;orthogonalLoop=1;jettySize=auto;html=1;fontSize=18;" edge="1" parent="1" source="paTC-IRf0mrHUXig7ckt-4" target="paTC-IRf0mrHUXig7ckt-6">
          <mxGeometry relative="1" as="geometry" />
        </mxCell>
        <mxCell id="paTC-IRf0mrHUXig7ckt-4" value="can u use all the functionalities of framework in your project?" style="rounded=1;whiteSpace=wrap;html=1;fontSize=18;fillColor=#f8cecc;strokeColor=#b85450;" vertex="1" parent="1">
          <mxGeometry x="500" y="610" width="340" height="50" as="geometry" />
        </mxCell>
        <mxCell id="paTC-IRf0mrHUXig7ckt-5" value="lib : we will be choosy." style="ellipse;whiteSpace=wrap;html=1;aspect=fixed;fontSize=18;fillColor=#d5e8d4;strokeColor=#82b366;" vertex="1" parent="1">
          <mxGeometry x="520" y="720" width="80" height="80" as="geometry" />
        </mxCell>
        <mxCell id="paTC-IRf0mrHUXig7ckt-6" value="will prefer to work with Framework" style="whiteSpace=wrap;html=1;fontSize=18;fillColor=#dae8fc;strokeColor=#6c8ebf;rounded=1;" vertex="1" parent="1">
          <mxGeometry x="575" y="850" width="190" height="60" as="geometry" />
        </mxCell>
        <mxCell id="paTC-IRf0mrHUXig7ckt-10" value="" style="edgeStyle=orthogonalEdgeStyle;rounded=0;orthogonalLoop=1;jettySize=auto;html=1;fontSize=18;" edge="1" parent="1" source="paTC-IRf0mrHUXig7ckt-8" target="paTC-IRf0mrHUXig7ckt-9">
          <mxGeometry relative="1" as="geometry" />
        </mxCell>
        <mxCell id="paTC-IRf0mrHUXig7ckt-12" value="" style="edgeStyle=orthogonalEdgeStyle;rounded=0;orthogonalLoop=1;jettySize=auto;html=1;fontSize=18;" edge="1" parent="1" source="paTC-IRf0mrHUXig7ckt-8" target="paTC-IRf0mrHUXig7ckt-11">
          <mxGeometry relative="1" as="geometry" />
        </mxCell>
        <mxCell id="paTC-IRf0mrHUXig7ckt-8" value="Vue.js" style="ellipse;whiteSpace=wrap;html=1;fontSize=18;" vertex="1" parent="1">
          <mxGeometry x="90" y="860" width="120" height="80" as="geometry" />
        </mxCell>
        <mxCell id="paTC-IRf0mrHUXig7ckt-9" value="web application" style="whiteSpace=wrap;html=1;fontSize=18;" vertex="1" parent="1">
          <mxGeometry x="-50" y="1020" width="120" height="60" as="geometry" />
        </mxCell>
        <mxCell id="paTC-IRf0mrHUXig7ckt-11" value="widgets" style="whiteSpace=wrap;html=1;fontSize=18;" vertex="1" parent="1">
          <mxGeometry x="270" y="1020" width="120" height="60" as="geometry" />
        </mxCell>
        <mxCell id="paTC-IRf0mrHUXig7ckt-15" value="Become a member" style="rounded=1;whiteSpace=wrap;html=1;fontSize=18;" vertex="1" parent="1">
          <mxGeometry x="230" y="1220" width="340" height="110" as="geometry" />
        </mxCell>
        <mxCell id="paTC-IRf0mrHUXig7ckt-16" value="Get our free newsletters" style="rounded=1;whiteSpace=wrap;html=1;fontSize=18;" vertex="1" parent="1">
          <mxGeometry x="230" y="1370" width="310" height="100" as="geometry" />
        </mxCell>
        <mxCell id="paTC-IRf0mrHUXig7ckt-18" style="edgeStyle=orthogonalEdgeStyle;rounded=0;orthogonalLoop=1;jettySize=auto;html=1;entryX=-0.003;entryY=0.618;entryDx=0;entryDy=0;entryPerimeter=0;fontSize=18;" edge="1" parent="1" source="paTC-IRf0mrHUXig7ckt-17" target="paTC-IRf0mrHUXig7ckt-15">
          <mxGeometry relative="1" as="geometry" />
        </mxCell>
        <mxCell id="paTC-IRf0mrHUXig7ckt-19" style="edgeStyle=orthogonalEdgeStyle;rounded=0;orthogonalLoop=1;jettySize=auto;html=1;entryX=-0.01;entryY=0.68;entryDx=0;entryDy=0;entryPerimeter=0;fontSize=18;" edge="1" parent="1" source="paTC-IRf0mrHUXig7ckt-17" target="paTC-IRf0mrHUXig7ckt-16">
          <mxGeometry relative="1" as="geometry">
            <Array as="points">
              <mxPoint x="40" y="1438" />
            </Array>
          </mxGeometry>
        </mxCell>
        <mxCell id="paTC-IRf0mrHUXig7ckt-21" value="" style="edgeStyle=orthogonalEdgeStyle;rounded=0;orthogonalLoop=1;jettySize=auto;html=1;fontSize=18;" edge="1" parent="1" source="paTC-IRf0mrHUXig7ckt-17" target="paTC-IRf0mrHUXig7ckt-20">
          <mxGeometry relative="1" as="geometry" />
        </mxCell>
        <mxCell id="paTC-IRf0mrHUXig7ckt-17" value="Signup Form" style="shape=process;whiteSpace=wrap;html=1;backgroundOutline=1;fontSize=18;fillColor=#dae8fc;strokeColor=#6c8ebf;" vertex="1" parent="1">
          <mxGeometry x="-30" y="1280" width="140" height="90" as="geometry" />
        </mxCell>
        <mxCell id="paTC-IRf0mrHUXig7ckt-20" value="self contained block" style="whiteSpace=wrap;html=1;fontSize=18;fillColor=#dae8fc;strokeColor=#6c8ebf;" vertex="1" parent="1">
          <mxGeometry x="-20" y="1125" width="120" height="60" as="geometry" />
        </mxCell>
        <mxCell id="paTC-IRf0mrHUXig7ckt-22" value="" style="rounded=1;whiteSpace=wrap;html=1;fontSize=18;" vertex="1" parent="1">
          <mxGeometry x="-50" y="1590" width="350" height="250" as="geometry" />
        </mxCell>
      </root>
    </mxGraphModel>
  </diagram>
</mxfile>
